<svg viewBox="0 0 125 35" width="125" height="35" xmlns="http://www.w3.org/2000/svg">
    <path d="m53.5 20c-.2 0-.3.1-.4.2-.9.9-1.7 1.2-2.9 1.2-2.1 0-3.7-1.7-3.7-3.9s1.6-3.9 3.7-3.9c1.1 0 1.9.4 2.8 1.1.1.1.3.2.4.2.3 0 .6-.3.6-.6 0-.1-.1-.3-.2-.5-.8-.7-1.8-1.4-3.6-1.4-2.8 0-4.9 2.2-4.9 5.1v.1c0 2.9 2.1 5.1 4.9 5.1 1.5 0 2.6-.4 3.7-1.5.1-.1.2-.3.2-.4 0-.5-.3-.8-.6-.8z"/>
    <path d="m58.7 12.4c-.3 0-.6.3-.6.6v8.7c0 .3.3.6.6.6s.6-.3.6-.6v-8.7c0-.3-.3-.6-.6-.6z"/>
    <path d="m68.1 16.9 3.4-3.4c.2-.2.2-.3.2-.4 0-.3-.3-.6-.6-.6-.2 0-.3.1-.4.2l-5.5 5.6v-5.2c0-.3-.3-.6-.6-.6s-.6.2-.6.6v8.7c0 .3.3.6.6.6s.6-.3.6-.6v-2l2.1-2.1 3.6 4.4c.1.2.3.2.5.2.3 0 .6-.3.6-.6 0-.2-.1-.3-.2-.4z"/>
    <path d="m82.1 21.2h-5v-8.2c0-.3-.3-.6-.6-.6s-.6.3-.6.6v8.7c0 .3.3.6.6.6h5.6c.3 0 .6-.3.6-.6s-.3-.5-.6-.5z"/>
    <path d="m93 12.4c-.3 0-.6.3-.6.6v5.2c0 2-1 3.1-2.9 3.1-1.8 0-2.9-1.2-2.9-3.2v-5.1c0-.3-.3-.6-.6-.6s-.6.3-.6.6v5.2c0 2.6 1.6 4.3 4.1 4.3s4.1-1.7 4.1-4.4v-5.1c0-.3-.3-.6-.6-.6z"/>
    <path d="m106.5 12.5c-.3 0-.5.1-.6.3l-3.4 5-3.5-5.1c-.1-.1-.2-.3-.5-.3h-.1c-.3 0-.6.3-.6.6v8.7c0 .3.3.6.6.6s.6-.3.6-.6v-6.9l2.9 4.3c.1.2.3.3.5.3s.4-.1.5-.3l2.9-4.3v7c0 .3.3.6.6.6s.6-.3.6-.6v-8.7c.2-.4-.1-.6-.5-.6z"/>
    <circle cx="17.5" cy="17.5" fill="#f0f0f0" r="17.5"/>
    <path d="m17.9 25.5c-4.3.3-8.1-3-8.4-7.4-.3-3.8 2.1-7.1 5.5-8.2l-1-3.2c-4.9 1.5-8.3 6.3-7.9 11.7.4 6.2 5.8 11 12 10.5.9-.1 1.7-.2 2.5-.5l-1-3.2c-.5.1-1.1.2-1.7.3" fill="#00aaf0"/>
    <path d="m12.1 22.8c2.9 2.9 7.6 2.9 10.4 0l-1.7-1.8c-1.9 1.9-5 1.9-6.9 0s-1.9-5.1 0-7l-1.7-1.8c-3 2.9-3 7.7-.1 10.6" fill="#50468c"/>
    <path d="m25.6 25.9c-4.5 4.6-11.9 4.6-16.5 0-2.3-2.3-3.4-5.3-3.4-8.4 0-3 1.1-6 3.4-8.4 4.5-4.6 11.9-4.6 16.5 0l3.4-3.4c-6.5-6.6-16.7-6.7-23.3 0-3.3 3.3-4.8 7.6-4.8 11.9 0 4.3 1.6 8.6 4.8 11.8 6.4 6.5 16.9 6.5 23.3 0z" fill="#f06428"/>
</svg>
